{"title":"Jessie J - Hero Lyric Video (Kick Ass 2 Soundtrack) 1080p","uid":8824179,"size":153243918,"categoryP":"video","categoryS":"music_videos","magnet":"?xt=urn:btih:c661fae2808a832abfeeb0cdf8c3df173693f45e&amp;dn=Jessie+J+-+Hero+Lyric+Video+%28Kick+Ass+2+Soundtrack%29+1080p&amp;tr=udp%3A%2F%2Ftracker.openbittorrent.com%3A80&amp;tr=udp%3A%2F%2Fopen.demonii.com%3A1337&amp;tr=udp%3A%2F%2Ftracker.coppersurfer.tk%3A6969&amp;tr=udp%3A%2F%2Fexodus.desync.com%3A6969","seeders":1,"leechers":0,"uploader":"deejayabc","files":1,"time":1376784037,"description":"Keep Seeding!!=))\n\nVideo \nID : 1 \nFormat : AVC \nFormat/Info : Advanced Video Codec \nFormat profile : &lt;a class=&quot;__cf_email__&quot; href=&quot;/cdn-cgi/l/email-protection&quot; data-cfemail=&quot;bcf4d5dbd4fcf088928c&quot;&gt;[email&amp;#160;protected]&lt;/a&gt;&lt;script cf-hash='f9e31' type=&quot;text/javascript&quot;&gt;\n/* &lt;![CDATA[ */!function(){try{var t=&quot;currentScript&quot;in document?document.currentScript:function(){for(var t=document.getElementsByTagName(&quot;script&quot;),e=t.length;e--;)if(t[e].getAttribute(&quot;cf-hash&quot;))return t[e]}();if(t&amp;&amp;t.previousSibling){var e,r,n,i,c=t.previousSibling,a=c.getAttribute(&quot;data-cfemail&quot;);if(a){for(e=&quot;&quot;,r=parseInt(a.substr(0,2),16),n=2;a.length-n;n+=2)i=parseInt(a.substr(n,2),16)^r,e+=String.fromCharCode(i);e=document.createTextNode(e),c.parentNode.replaceChild(e,c)}}}catch(u){}}();/* ]]&gt; */&lt;/script&gt; \nFormat settings, CABAC : Yes \nFormat settings, ReFrames : 1 frame \nCodec ID : avc1 \nCodec ID/Info : Advanced Video Coding \nDuration : 3mn 21s \nBit rate : 5 904 Kbps \nMaximum bit rate : 12.1 Mbps \nWidth : 1 920 pixels \nHeight : 1 080 pixels \nDisplay aspect ratio : 16:9 \nFrame rate mode : Constant \nFrame rate : 29.970 fps \nColor space : YUV \nChroma subsampling : 4:2:0 \nBit depth : 8 bits \nScan type : Progressive \nBits/(Pixel*Frame) : 0.095 \nStream size : 141 MiB (97%) \nTagged date : UTC 2013-08-15 08:11:47 \n\nAudio \nID : 2 \nFormat : AAC \nFormat/Info : Advanced Audio Codec \nFormat profile : LC \nCodec ID : 40 \nDuration : 3mn 21s \nBit rate mode : Variable \nBit rate : 192 Kbps \nMaximum bit rate : 202 Kbps \nChannel(s) : 2 channels \nChannel positions : Front: L R \nSampling rate : 44.1 KHz \nCompression mode : Lossy \nStream size : 4.60 MiB (3%) \nTitle : IsoMedia File Produced by Google, 5-11-2011 \nEncoded date : UTC 2013-08-15 08:11:44 \nTagged date : UTC 2013-08-15 08:11:47 ","torrent":{"xt":"urn:btih:c661fae2808a832abfeeb0cdf8c3df173693f45e","amp;dn":"Jessie+J+-+Hero+Lyric+Video+%28Kick+Ass+2+Soundtrack%29+1080p","amp;tr":["udp%3A%2F%2Ftracker.openbittorrent.com%3A80","udp%3A%2F%2Fopen.demonii.com%3A1337","udp%3A%2F%2Ftracker.coppersurfer.tk%3A6969","udp%3A%2F%2Fexodus.desync.com%3A6969"],"infoHash":"c661fae2808a832abfeeb0cdf8c3df173693f45e","infoHashBuffer":{"type":"Buffer","data":[198,97,250,226,128,138,131,42,191,238,176,205,248,195,223,23,54,147,244,94]},"announce":[],"urlList":[]}}